<?xml version="1.0" encoding="UTF-8" standalone="no"?><!DOCTYPE svg PUBLIC "-//W3C//DTD SVG 1.1//EN" "http://www.w3.org/Graphics/SVG/1.1/DTD/svg11.dtd"><svg width="100%" height="100%" viewBox="0 0 827 975" version="1.1" xmlns="http://www.w3.org/2000/svg" xmlns:xlink="http://www.w3.org/1999/xlink" xml:space="preserve" xmlns:serif="http://www.serif.com/" style="fill-rule:evenodd;clip-rule:evenodd;stroke-linecap:round;stroke-linejoin:round;stroke-miterlimit:1.5;"><path d="M324.743,88.596c-0,-30.5 38.321,-55.263 68.821,-55.263c30.5,0 68.567,24.763 68.567,55.263c0,3.004 0.464,5.952 0,8.831l0,329.139c0,0 45.368,-63.485 98.083,-54.699c52.714,8.785 167.206,96.912 206.741,125.73c39.536,28.818 24.893,305.567 19.036,330.46c-5.857,24.893 -51.25,111.285 -130.321,112.75c-79.071,1.464 -262.106,-0 -262.106,-0c-0,-0 -74.679,-5.857 -142.035,-77.607c-67.357,-71.75 -146.428,-130.321 -202.071,-180.107c-55.643,-49.785 46.857,-111.285 93.714,-79.071c46.857,32.214 150.821,86.393 181.571,36.607l-0,-552.033Z" style="fill:none;stroke:#fffcf4;stroke-width:66.67px;"/></svg>